<?xml version="1.0" encoding="utf-8"?>
<!-- Generator: Adobe Illustrator 25.4.4, SVG Export Plug-In . SVG Version: 6.00 Build 0)  -->
<svg version="1.1" id="Layer_3" xmlns="http://www.w3.org/2000/svg" xmlns:xlink="http://www.w3.org/1999/xlink" x="0px" y="0px"
	 viewBox="0 0 720 324" style="enable-background:new 0 0 720 324;" xml:space="preserve">
<style type="text/css">
	.st0{fill:url(#SVGID_1_);}
	.st1{fill:url(#SVGID_00000009553814512322463600000010760226287742152834_);}
	.st2{fill:url(#SVGID_00000082333817322184280180000017593375325552417685_);}
	.st3{fill:#2997EF;}
	.st4{fill:#2236C2;}
</style>
<linearGradient id="SVGID_1_" gradientUnits="userSpaceOnUse" x1="560.6519" y1="207.2742" x2="689.6193" y2="78.3068">
	<stop  offset="0" style="stop-color:#2236C2"/>
	<stop  offset="0.1274" style="stop-color:#2348CA"/>
	<stop  offset="0.4684" style="stop-color:#2673DE"/>
	<stop  offset="0.7352" style="stop-color:#288DEA"/>
	<stop  offset="0.893" style="stop-color:#2997EF"/>
</linearGradient>
<path class="st0" d="M599.758,102.484c-0.988,1.328-2.272,2.423-3.756,3.186s-3.166,1.194-4.95,1.194
	c-3.003,0-5.723-1.218-7.692-3.187c-1.969-1.969-3.187-4.688-3.187-7.691c0-3.003,1.218-5.723,3.187-7.692s4.688-3.187,7.692-3.187
	c2.552,0,4.896,0.881,6.749,2.355s3.214,3.542,3.798,5.915h11.262h11.262c0.002,0,0.006-0.001,0.009-0.002s0.006-0.002,0.009-0.002
	l25.547-0.888l25.547-0.888l-0.016,0.001l-0.016,0.001l-0.039-0.022l-0.039-0.022c0.528-0.482,1.14-0.87,1.814-1.138
	c0.673-0.268,1.407-0.415,2.177-0.415c1.653,0,3.149,0.67,4.231,1.753c1.083,1.083,1.752,2.579,1.752,4.232
	c0,1.651-0.67,3.146-1.752,4.228c-1.083,1.082-2.579,1.752-4.231,1.752c-1.182,0-2.28-0.346-3.203-0.94
	c-0.923-0.594-1.672-1.437-2.159-2.432 M625.394,47.501c2.378,0,4.531-0.964,6.09-2.522c1.559-1.558,2.523-3.711,2.523-6.089
	c0-2.378-0.964-4.531-2.523-6.089c-1.559-1.558-3.712-2.522-6.09-2.522c-2.377,0-4.53,0.964-6.088,2.522
	c-1.558,1.558-2.523,3.711-2.523,6.089c0,2.378,0.964,4.531,2.523,6.089C620.864,46.537,623.017,47.501,625.394,47.501z
	 M666.515,165.233c0.584,2.373,1.945,4.44,3.798,5.915c1.853,1.474,4.197,2.355,6.749,2.355c3.003,0,5.723-1.218,7.691-3.187
	c1.969-1.969,3.187-4.689,3.187-7.692c0-3.003-1.218-5.722-3.187-7.691c-1.969-1.969-4.688-3.187-7.691-3.187
	c-1.784,0-3.466,0.431-4.95,1.193c-1.484,0.763-2.768,1.858-3.756,3.186l0.026-0.025l0.026-0.025l-37.025,1.971l-37.025,1.971
	c-0.487-0.995-1.236-1.838-2.159-2.432c-0.923-0.594-2.02-0.94-3.202-0.94c-1.653,0-3.149,0.67-4.232,1.752
	c-1.083,1.082-1.752,2.577-1.752,4.228c0,1.653,0.669,3.149,1.752,4.232c1.083,1.083,2.579,1.752,4.232,1.752
	c0.868,0,1.69-0.186,2.431-0.521s1.399-0.816,1.94-1.407 M627.574,165.237 M649.655,194.565c0.292,1.186,0.779,2.296,1.424,3.294
	s1.448,1.883,2.375,2.62c0.926,0.737,1.976,1.326,3.112,1.731c1.137,0.405,2.361,0.625,3.636,0.625c1.502,0,2.932-0.305,4.233-0.855
	c1.301-0.551,2.473-1.347,3.458-2.332c0.984-0.984,1.781-2.157,2.332-3.458c0.551-1.301,0.855-2.732,0.855-4.234
	c0-1.501-0.305-2.906-0.857-4.174c-0.552-1.269-1.35-2.401-2.335-3.359c-0.985-0.958-2.158-1.742-3.458-2.312
	c-1.301-0.57-2.729-0.927-4.227-1.032c-1.046-0.073-2.051,0.034-2.996,0.282c-0.945,0.247-1.829,0.634-2.631,1.12
	c-0.802,0.485-1.522,1.069-2.14,1.71c-0.617,0.641-1.132,1.338-1.523,2.052l-0.004-0.005l-0.004-0.005l-0.004-0.005l-0.004-0.005
	l-10.859,0.782l-10.859,0.782l-10.859,0.782l-10.859,0.782c-0.243-0.497-0.552-0.957-0.916-1.366
	c-0.364-0.409-0.782-0.769-1.243-1.066c-0.462-0.297-0.967-0.532-1.504-0.693c-0.537-0.161-1.107-0.247-1.698-0.247
	c-0.827,0-1.614,0.167-2.33,0.47s-1.361,0.741-1.902,1.282s-0.979,1.185-1.282,1.901c-0.303,0.715-0.47,1.502-0.47,2.327
	c0,0.827,0.167,1.614,0.47,2.33c0.303,0.716,0.741,1.361,1.282,1.902s1.186,0.979,1.902,1.282c0.716,0.303,1.503,0.47,2.33,0.47
	c0.434,0,0.857-0.047,1.263-0.135c0.407-0.088,0.797-0.219,1.168-0.386c0.37-0.167,0.72-0.371,1.045-0.607
	c0.325-0.236,0.625-0.504,0.895-0.8 M663.926,69.047c0.487,0.995,1.236,1.838,2.159,2.432s2.02,0.94,3.202,0.94
	c1.653,0,3.149-0.67,4.232-1.752c1.083-1.082,1.752-2.577,1.752-4.228c0-1.653-0.669-3.149-1.752-4.232
	c-1.083-1.083-2.579-1.752-4.232-1.752c-0.868,0-1.69,0.186-2.431,0.521s-1.399,0.816-1.94,1.407l0.019-0.009l0.019-0.009
	l-1.86,0.735l-1.859,0.735l-2.41,0.029l-2.41,0.029l2.128-0.033l2.128-0.033c-0.002,0-0.005,0.001-0.009,0.002
	c-0.003,0.001-0.006,0.002-0.009,0.002h-21.27h-21.27c-0.585-2.373-1.945-4.44-3.798-5.915c-1.853-1.474-4.197-2.355-6.749-2.355
	c-3.003,0-5.723,1.218-7.691,3.187c-1.969,1.969-3.187,4.689-3.187,7.692c0,3.003,1.222,5.618,3.192,7.534s4.69,3.134,7.686,3.344
	c2.091,0.147,4.023-0.431,5.627-1.402s2.881-2.335,3.663-3.761 M630.755,233.064c-2.064,0-3.932,0.836-5.284,2.188
	c-1.352,1.352-2.188,3.22-2.188,5.284c0,0.006,0,0.012,0.001,0.018c0,0.006,0.001,0.012,0.001,0.018c0,0.005,0,0.01-0.001,0.015
	c0,0.005-0.001,0.01-0.001,0.015c0,2.063,0.836,3.932,2.188,5.284s3.22,2.189,5.284,2.189c2.064,0,3.933-0.837,5.285-2.189
	s2.189-3.221,2.189-5.284c0-0.006,0-0.011-0.001-0.017c0-0.006-0.001-0.011-0.001-0.017c0-0.005,0-0.011,0.001-0.016
	c0-0.005,0.001-0.011,0.001-0.017c0-2.064-0.836-3.932-2.189-5.284C634.687,233.9,632.819,233.064,630.755,233.064z
	 M674.075,132.101c0.565,1.948,1.745,3.634,3.316,4.834c1.571,1.2,3.534,1.913,5.665,1.913c2.584,0,4.923-1.047,6.616-2.74
	c1.693-1.693,2.74-4.032,2.74-6.616c0-2.584-1.047-4.923-2.74-6.616c-1.693-1.693-4.032-2.74-6.616-2.74
	c-1.55,0-3.231,0.58-4.65,1.581c-1.419,1.001-2.577,2.422-3.082,4.105l0,0l0,0l-40.642,0.531l-40.642,0.531
	c-0.565-1.948-1.745-3.634-3.316-4.834s-3.534-1.913-5.665-1.913c-2.584,0-4.923,1.047-6.616,2.74s-2.74,4.032-2.74,6.616
	c0,2.584,1.047,4.924,2.74,6.616s4.032,2.74,6.616,2.74c1.574,0,3.057-0.389,4.358-1.077c1.301-0.688,2.42-1.673,3.266-2.866
	 M633.979,220.27c0.504,2.045,1.677,3.828,3.274,5.099c1.597,1.271,3.618,2.03,5.818,2.03c2.589,0,4.933-1.05,6.63-2.747
	c1.697-1.697,2.747-4.042,2.747-6.631c0-2.589-1.053-4.843-2.752-6.495c-1.699-1.652-4.043-2.702-6.626-2.883
	c-1.803-0.126-3.468,0.371-4.851,1.208c-1.383,0.837-2.484,2.013-3.158,3.242l-0.013,0.005l-0.013,0.005l-9.335,1.334l-9.335,1.334
	c-0.419-0.857-1.065-1.584-1.861-2.096c-0.796-0.512-1.741-0.81-2.76-0.81c-1.425,0-2.715,0.577-3.648,1.51
	s-1.511,2.222-1.511,3.645c0,1.425,0.577,2.715,1.511,3.648s2.223,1.511,3.648,1.511c0.748,0,1.457-0.161,2.096-0.449
	c0.638-0.288,1.206-0.704,1.672-1.213 M618.562,251.332c-1.584,0-3.019,0.642-4.057,1.681c-1.038,1.038-1.681,2.473-1.681,4.057
	c0,1.584,0.642,3.019,1.681,4.057s2.473,1.681,4.057,1.681s3.019-0.642,4.057-1.681s1.681-2.473,1.681-4.057
	c0-1.584-0.642-3.019-1.681-4.057C621.581,251.974,620.146,251.332,618.562,251.332z"/>
<linearGradient id="SVGID_00000120532298999849776020000002242283037468131745_" gradientUnits="userSpaceOnUse" x1="590.9551" y1="136.2866" x2="688.7868" y2="38.4549">
	<stop  offset="0" style="stop-color:#2236C2"/>
	<stop  offset="0.0489" style="stop-color:#244DCD"/>
	<stop  offset="0.1192" style="stop-color:#2668D9"/>
	<stop  offset="0.1963" style="stop-color:#277DE3"/>
	<stop  offset="0.2824" style="stop-color:#288CEA"/>
	<stop  offset="0.3848" style="stop-color:#2994EE"/>
	<stop  offset="0.5457" style="stop-color:#2997EF"/>
</linearGradient>
<path style="fill:url(#SVGID_00000120532298999849776020000002242283037468131745_);" d="M639.089,39.809
	c0,0-2.624,2.469-5.258,5.049s-5.279,5.274-5.322,5.722c0,0-0.955,1.318-1.452,3.774s-0.535,6.05,1.298,10.601
	c1.833,4.551,2.444,7.401,2.59,9.176c0.146,1.775-0.171,2.474-0.195,2.724c0,0-0.764,4.542-1.024,9.53
	c-0.259,4.988-0.014,10.421,2.005,12.204c2.019,1.783,2.551,5.886,2.577,9.544c0.027,3.658-0.452,6.87-0.452,6.87
	s0.235,2.124-0.849,6.622s-3.487,11.369-8.764,20.863s-6.885,15.578-6.752,18.75c0.133,3.172,2.008,3.432,3.699,1.279
	c1.691-2.153,3.615-5.026,5.493-8.07c1.878-3.043,3.71-6.256,5.217-9.087c1.507-2.831,4.155-7.246,6.618-12.754
	c2.463-5.507,4.739-12.105,5.503-19.301c0.764-7.196,0.928-10.236,0.86-11.915s-0.368-1.996-0.533-3.747
	c0,0,2.677-0.077,6.223-0.815c3.545-0.738,7.959-2.137,11.43-4.781c0,0-1.362,5.174-2.928,11.423
	c-1.567,6.249-3.338,13.573-4.158,17.873c-0.82,4.3-0.624,7.457,0.418,8.01c1.042,0.553,2.929-1.498,5.491-7.615
	s4.595-12.136,6.216-17.286c1.621-5.15,2.83-9.43,3.74-12.069c0.911-2.639,1.632-6.329,0.918-9.04
	c-0.714-2.711-2.862-4.442-7.691-3.165s-7.327,2.362-9.74,3.207c-2.413,0.845-4.742,1.451-9.232,1.769c0,0,0.39-2.074,0.684-4.653
	c0.294-2.579,0.491-5.663,0.104-7.682c0,0,1.598,3.598,3.829,5.238c2.231,1.64,5.095,1.322,7.625-6.511c0,0,0.583-2.67,1.777-5.242
	s2.997-5.044,5.437-4.647c0,0-1.779-0.413-3.821-0.428s-4.348,0.366-5.402,1.955c0,0-0.622,1.22-1.292,2.549
	s-1.389,2.767-1.584,3.201c-0.633,1.412-1.044,0.608-2.37-1.869s-3.567-6.627-7.857-11.906c0,0-0.27-0.703-0.273-1.89
	c-0.003-1.187,0.262-2.858,1.332-4.795c0.667-1.207,0.939-1.608,1.288-2.141c0.348-0.533,0.773-1.198,1.744-2.935
	c1.626-2.908,4.206-8.807,6.909-14.549c2.702-5.742,5.527-11.326,7.642-13.603s1.596-3.772,0.217-4.254
	c-1.379-0.482-3.618,0.05-4.943,1.824s-2.509,3.375-3.726,5.324s-2.467,4.245-3.923,7.411c-1.456,3.166-2.785,5.251-4.253,7.285
	C642.71,34.872,641.103,36.853,639.089,39.809z"/>
<radialGradient id="SVGID_00000088850074996591769190000011001882900708635526_" cx="295.8808" cy="138.2878" r="210.0654" gradientUnits="userSpaceOnUse">
	<stop  offset="0.4851" style="stop-color:#2236C2"/>
	<stop  offset="1" style="stop-color:#2997EF"/>
</radialGradient>
<path style="fill:url(#SVGID_00000088850074996591769190000011001882900708635526_);" d="M433.279,132.656V98.639h53.98V27.742
	h47.256v70.898h29.658v34.017h-29.658v76.564c0,7.486,0.946,12.149,2.849,13.992c1.898,1.843,7.708,2.765,17.426,2.765
	c1.451,0,2.988-0.027,4.609-0.084c1.619-0.055,3.209-0.139,4.775-0.251v35.692l-22.621,0.838
	c-22.567,0.781-37.985-3.126-46.25-11.73c-5.362-5.471-8.043-13.908-8.043-25.303v-92.484H433.279z M121.931,10.968
	c2.456,0.168,5.808,0.419,11.967,1.71v38.876c-4.595-1.291-9.091-1.542-15.401-1.71c-6.314-0.168-10.671,1.231-13.072,4.189
	c-2.403,2.962-3.602,6.229-3.602,9.803c0,3.577,0,32.091,0,38.794h72.959v33.682h-72.959v123.917H54.4V136.312H27.589v-33.682H53.73
	V67.523c0-19.548,3.294-33.011,9.886-40.384c6.927-10.948,23.628-16.422,50.104-16.422
	C116.737,10.717,119.473,10.801,121.931,10.968z M208.466,148.559c8.89-1.115,15.246-2.513,19.074-4.189
	c6.864-2.904,10.299-7.428,10.299-13.573c0-7.483-2.635-12.652-7.899-15.5c-5.266-2.849-12.996-4.273-23.186-4.273
	c-11.436,0-19.535,2.793-24.289,8.378c-3.399,4.135-5.664,9.719-6.795,16.757h-46.083c1.009-15.974,5.496-29.099,13.464-39.379
	c12.678-16.087,34.444-24.13,65.299-24.13c20.083,0,37.922,3.966,53.518,11.897c15.594,7.933,23.392,22.902,23.392,44.909v83.785
	c0,5.81,0.11,12.848,0.335,21.114c0.335,6.258,1.283,10.502,2.849,12.736c1.563,2.236,3.909,4.079,7.038,5.53v7.038h-51.946
	c-1.453-3.686-2.458-7.148-3.016-10.39c-0.562-3.239-1.005-6.925-1.34-11.059c-6.631,7.15-14.272,13.237-22.925,18.265
	c-10.337,5.92-22.024,8.881-35.059,8.881c-16.631,0-30.365-4.72-41.209-14.16c-10.844-9.439-16.264-22.815-16.264-40.133
	c0-22.454,8.722-38.708,26.165-48.763c9.566-5.472,23.635-9.384,42.203-11.73L208.466,148.559z M237.667,170.847
	c-3.058,1.9-6.145,3.435-9.258,4.608c-3.116,1.173-7.389,2.262-12.825,3.267l-10.871,2.011c-10.19,1.789-17.507,3.967-21.95,6.536
	c-7.524,4.357-11.282,11.117-11.282,20.276c0,8.156,2.296,14.049,6.89,17.679c4.592,3.631,10.181,5.446,16.76,5.446
	c10.437,0,20.048-3.016,28.841-9.048c8.792-6.033,13.355-17.035,13.696-33.011V170.847z M347.42,201.344
	c1.009,8.491,3.198,14.524,6.566,18.098c5.949,6.367,16.948,9.551,33,9.551c9.429,0,16.922-1.396,22.479-4.189
	c5.555-2.791,8.334-6.98,8.334-12.568c0-5.362-2.239-9.439-6.713-12.233c-4.478-2.791-21.133-7.595-49.963-14.411
	c-20.755-5.136-35.377-11.562-43.866-19.27c-8.492-7.595-12.736-18.542-12.736-32.844c0-16.867,6.632-31.362,19.899-43.484
	c13.267-12.121,31.936-18.182,56.006-18.182c22.836,0,41.45,4.554,55.835,13.657c14.384,9.106,22.643,24.829,24.771,47.171h-47.757
	c-0.674-6.143-2.41-11.002-5.209-14.579c-5.268-6.478-14.23-9.719-26.887-9.719c-10.418,0-17.839,1.62-22.263,4.859
	c-4.425,3.242-6.636,7.038-6.636,11.395c0,5.474,2.351,9.441,7.058,11.897c4.703,2.571,21.324,6.983,49.863,13.238
	c19.025,4.47,33.286,11.228,42.783,20.276c9.383,9.162,14.075,20.612,14.075,34.353c0,18.098-6.745,32.872-20.234,44.322
	c-13.49,11.45-34.335,17.176-62.543,17.176c-28.769,0-50.009-6.061-63.721-18.181c-13.714-12.12-20.569-27.565-20.569-46.333H347.42
	z"/>
<g>
	<g>
		<path class="st3" d="M196.185,290.231c0-2.152-0.786-4.594-3.178-4.594c-1.943,0-3.925,1.076-3.925,9.187
			c0,2.897,0.038,8.692,3.813,8.692c2.692,0,3.29-3.146,3.29-5.546h3.14c0,3.518-1.57,8.277-6.579,8.277
			c-4.897,0-6.953-3.766-6.953-11.381c0-5.546,0.972-11.961,7.14-11.961c5.457,0,6.392,4.759,6.392,7.326H196.185z"/>
		<path class="st3" d="M220.63,305.668h-2.991v-2.607h-0.074c-0.823,2.027-2.916,3.187-4.86,3.187c-5.271,0-5.271-4.428-5.271-7.036
			v-15.726h3.14v15.313c0,1.697,0.112,4.47,2.953,4.47c1.682,0,3.963-1.242,3.963-4.47v-15.313h3.14V305.668z"/>
		<path class="st3" d="M229.599,283.485h3.14v3.311h0.075c0.897-2.111,2.093-3.891,4.336-3.891c0.636,0,1.084,0.083,1.384,0.249
			v3.393c-0.299-0.041-0.673-0.165-1.682-0.165c-1.57,0-4.112,1.572-4.112,5.256v14.03h-3.14V283.485z"/>
		<path class="st3" d="M248.138,294.991c0,3.393,0,8.526,3.85,8.526c2.991,0,3.402-3.477,3.402-5.132h3.14
			c0,2.359-1.271,7.864-6.728,7.864c-4.898,0-6.954-3.766-6.954-11.381c0-5.546,0.972-11.961,7.14-11.961
			c6.131,0,6.691,5.919,6.691,10.678v1.407H248.138z M255.39,292.259v-1.201c0-2.483-0.711-5.421-3.477-5.421
			c-3.29,0-3.664,4.469-3.664,5.794v0.828H255.39z"/>
		<path class="st4" d="M266.489,290.189c0-5.049,1.944-7.284,6.729-7.284c6.093,0,6.093,4.056,6.093,6.373v12.375
			c0,0.911,0,1.78,0.972,1.78c0.411,0,0.598-0.083,0.748-0.207v2.484c-0.225,0.041-1.047,0.207-1.832,0.207
			c-1.196,0-2.691,0-2.841-2.856h-0.075c-1.009,1.987-2.954,3.187-4.822,3.187c-3.738,0-5.458-2.484-5.458-6.457
			c0-3.104,1.196-5.256,3.775-6.125l4.224-1.407c2.281-0.786,2.281-1.49,2.281-3.353c0-2.069-1.121-3.269-3.215-3.269
			c-3.439,0-3.439,3.559-3.439,4.345v0.207H266.489z M276.172,293.584c-1.159,1.365-3.925,1.655-5.346,2.607
			c-1.009,0.704-1.533,1.573-1.533,3.518c0,2.235,0.71,3.808,2.841,3.808c2.057,0,4.038-1.946,4.038-4.222V293.584z"/>
		<path class="st4" d="M288.43,283.485h2.991v2.607h0.075c0.823-2.027,2.916-3.187,4.859-3.187c5.271,0,5.271,4.428,5.271,7.035
			v15.727h-3.14v-15.313c0-1.697-0.113-4.47-2.953-4.47c-1.682,0-3.963,1.242-3.963,4.47v15.313h-3.14V283.485z"/>
		<path class="st4" d="M323.791,304.261c0,6.622-2.766,9.022-6.804,9.022c-1.233,0-6.055,0-6.579-5.546h3.14
			c0.15,2.028,1.57,2.815,3.215,2.815c4.038,0,3.888-3.435,3.888-4.966v-2.897h-0.076c-0.673,1.862-2.541,2.98-4.523,2.98
			c-5.831,0-6.205-8.153-6.205-11.092c0-6,1.457-11.671,6.542-11.671c2.169,0,3.925,1.655,4.336,3.394h0.076v-2.815h2.99V304.261z
			 M313.137,294.576c0,3.601,0.486,8.112,3.626,8.112c3.402,0,4.075-3.559,4.075-8.112c0-4.303-0.673-8.691-4.038-8.691
			C313.884,285.885,313.137,289.279,313.137,294.576z"/>
		<path class="st4" d="M335.376,294.991c0,3.393,0,8.526,3.851,8.526c2.99,0,3.402-3.477,3.402-5.132h3.14
			c0,2.359-1.27,7.864-6.728,7.864c-4.898,0-6.954-3.766-6.954-11.381c0-5.546,0.972-11.961,7.14-11.961
			c6.131,0,6.691,5.919,6.691,10.678v1.407H335.376z M342.629,292.259v-1.201c0-2.483-0.71-5.421-3.478-5.421
			c-3.289,0-3.663,4.469-3.663,5.794v0.828H342.629z"/>
		<path class="st4" d="M354.4,276.119h3.14v29.549h-3.14V276.119z"/>
		<path class="st4" d="M366.997,283.485h2.99v2.607h0.076c0.823-2.027,2.916-3.187,4.859-3.187c2.318,0,3.701,0.993,4.337,3.518
			c0.897-1.945,2.69-3.518,4.746-3.518c5.271,0,5.271,4.428,5.271,7.035v15.727h-3.14v-15.313c0-1.697-0.113-4.47-2.692-4.47
			c-1.459,0-3.738,0.993-3.738,4.47v15.313h-3.14v-15.313c0-1.697-0.113-4.47-2.692-4.47c-1.459,0-3.738,0.993-3.738,4.47v15.313
			h-3.14V283.485z"/>
		<path class="st4" d="M398.056,290.189c0-5.049,1.945-7.284,6.73-7.284c6.092,0,6.092,4.056,6.092,6.373v12.375
			c0,0.911,0,1.78,0.972,1.78c0.411,0,0.597-0.083,0.747-0.207v2.484c-0.224,0.041-1.047,0.207-1.831,0.207
			c-1.196,0-2.692,0-2.842-2.856h-0.076c-1.008,1.987-2.953,3.187-4.822,3.187c-3.738,0-5.458-2.484-5.458-6.457
			c0-3.104,1.196-5.256,3.775-6.125l4.225-1.407c2.28-0.786,2.28-1.49,2.28-3.353c0-2.069-1.121-3.269-3.214-3.269
			c-3.439,0-3.439,3.559-3.439,4.345v0.207H398.056z M407.739,293.584c-1.159,1.365-3.925,1.655-5.345,2.607
			c-1.009,0.704-1.533,1.573-1.533,3.518c0,2.235,0.71,3.808,2.84,3.808c2.056,0,4.038-1.946,4.038-4.222V293.584z"/>
		<path class="st4" d="M419.996,283.485h2.991v2.607h0.074c0.823-2.027,2.916-3.187,4.859-3.187c5.271,0,5.271,4.428,5.271,7.035
			v15.727h-3.14v-15.313c0-1.697-0.113-4.47-2.953-4.47c-1.682,0-3.964,1.242-3.964,4.47v15.313h-3.14V283.485z"/>
		<path class="st3" d="M442.871,301.281h3.439v4.387h-3.439V301.281z"/>
		<path class="st3" d="M462.235,282.906c5.793,0,7.214,5.422,7.214,11.671c0,6.25-1.459,11.671-7.214,11.671
			c-5.794,0-7.216-5.422-7.216-11.671C455.019,288.327,456.477,282.906,462.235,282.906z M466.16,294.576
			c0-4.8-0.636-8.939-4.001-8.939c-3.177,0-3.85,4.138-3.85,8.939c0,4.801,0.634,8.94,3.85,8.94
			C465.487,303.516,466.16,299.377,466.16,294.576z"/>
		<path class="st3" d="M477.445,283.485h3.14v3.311h0.076c0.897-2.111,2.093-3.891,4.336-3.891c0.636,0,1.085,0.083,1.383,0.249
			v3.393c-0.298-0.041-0.673-0.165-1.682-0.165c-1.57,0-4.112,1.572-4.112,5.256v14.03h-3.14V283.485z"/>
		<path class="st3" d="M506.564,304.261c0,6.622-2.766,9.022-6.804,9.022c-1.233,0-6.055,0-6.579-5.546h3.14
			c0.15,2.028,1.57,2.815,3.215,2.815c4.038,0,3.888-3.435,3.888-4.966v-2.897h-0.076c-0.673,1.862-2.541,2.98-4.523,2.98
			c-5.831,0-6.205-8.153-6.205-11.092c0-6,1.457-11.671,6.542-11.671c2.169,0,3.925,1.655,4.336,3.394h0.076v-2.815h2.99V304.261z
			 M495.91,294.576c0,3.601,0.486,8.112,3.626,8.112c3.402,0,4.075-3.559,4.075-8.112c0-4.303-0.673-8.691-4.038-8.691
			C496.657,285.885,495.91,289.279,495.91,294.576z"/>
	</g>
</g>
<g>
	<path class="st3" d="M516.255,301.215h3.629v4.392h-3.629V301.215z"/>
	<path class="st3" d="M542.396,305.607h-3.155v-2.61h-0.079c-0.867,2.03-3.075,3.19-5.126,3.19c-5.56,0-5.56-4.434-5.56-7.044
		v-15.746h3.312v15.331c0,1.699,0.119,4.475,3.115,4.475c1.775,0,4.18-1.243,4.18-4.475v-15.331h3.312V305.607z"/>
	<path class="st3" d="M566.012,305.607h-3.865l-5.875-10.98l-2.721,3.481v7.499h-3.312v-29.584h3.312v17.609h0.079l7.414-10.234
		h3.865l-6.429,8.37L566.012,305.607z"/>
</g>
</svg>
